<svg width="123" height="105" viewBox="0 0 123 105" fill="none" xmlns="http://www.w3.org/2000/svg">
<path d="M0 0H123V105H0V0Z" fill="#F95F5F"/>
<path d="M25.346 87.2002H24.062V78.5842H25.346V87.2002ZM28.7562 87.2002H27.4722V78.5842H28.7562V87.2002ZM36.7563 79.6522H34.0203V87.2002H32.7483V79.6522H30.0003V78.5842H36.7563V79.6522ZM47.6995 83.0062V86.3662C47.2635 86.6782 46.7995 86.9122 46.3075 87.0682C45.8155 87.2202 45.2795 87.2962 44.6995 87.2962C44.0035 87.2962 43.3735 87.1882 42.8095 86.9722C42.2495 86.7562 41.7715 86.4542 41.3755 86.0662C40.9795 85.6782 40.6735 85.2142 40.4575 84.6742C40.2455 84.1342 40.1395 83.5402 40.1395 82.8922C40.1395 82.2402 40.2415 81.6442 40.4455 81.1042C40.6535 80.5602 40.9495 80.0962 41.3335 79.7122C41.7175 79.3242 42.1815 79.0242 42.7255 78.8122C43.2735 78.5962 43.8875 78.4882 44.5675 78.4882C44.9115 78.4882 45.2295 78.5142 45.5215 78.5662C45.8175 78.6182 46.0915 78.6922 46.3435 78.7882C46.5955 78.8842 46.8275 79.0002 47.0395 79.1362C47.2555 79.2682 47.4555 79.4182 47.6395 79.5862L47.2735 80.1622C47.2175 80.2542 47.1435 80.3122 47.0515 80.3362C46.9595 80.3602 46.8595 80.3382 46.7515 80.2702C46.6475 80.2102 46.5315 80.1402 46.4035 80.0602C46.2795 79.9802 46.1295 79.9062 45.9535 79.8382C45.7815 79.7702 45.5795 79.7122 45.3475 79.6642C45.1155 79.6162 44.8415 79.5922 44.5255 79.5922C44.0535 79.5922 43.6275 79.6702 43.2475 79.8262C42.8675 79.9782 42.5435 80.1982 42.2755 80.4862C42.0075 80.7742 41.8015 81.1222 41.6575 81.5302C41.5135 81.9342 41.4415 82.3882 41.4415 82.8922C41.4415 83.4202 41.5175 83.8942 41.6695 84.3142C41.8215 84.7302 42.0355 85.0842 42.3115 85.3762C42.5915 85.6642 42.9295 85.8842 43.3255 86.0362C43.7255 86.1882 44.1715 86.2642 44.6635 86.2642C44.8555 86.2642 45.0335 86.2542 45.1975 86.2342C45.3655 86.2102 45.5255 86.1782 45.6775 86.1382C45.8295 86.0982 45.9755 86.0482 46.1155 85.9882C46.2595 85.9282 46.4015 85.8622 46.5415 85.7902V83.9842H45.2695C45.1895 83.9842 45.1235 83.9602 45.0715 83.9122C45.0235 83.8642 44.9995 83.8042 44.9995 83.7322V83.0062H47.6995ZM52.7814 86.1742C53.1254 86.1742 53.4334 86.1162 53.7054 86.0002C53.9774 85.8842 54.2074 85.7222 54.3954 85.5142C54.5834 85.3022 54.7274 85.0522 54.8274 84.7642C54.9274 84.4722 54.9774 84.1502 54.9774 83.7982V78.5842H56.2494V83.7982C56.2494 84.3022 56.1694 84.7682 56.0094 85.1962C55.8494 85.6242 55.6194 85.9942 55.3194 86.3062C55.0194 86.6182 54.6554 86.8622 54.2274 87.0382C53.7994 87.2142 53.3174 87.3022 52.7814 87.3022C52.2454 87.3022 51.7634 87.2142 51.3354 87.0382C50.9074 86.8622 50.5434 86.6182 50.2434 86.3062C49.9434 85.9942 49.7134 85.6242 49.5534 85.1962C49.3934 84.7682 49.3134 84.3022 49.3134 83.7982V78.5842H50.5914V83.7922C50.5914 84.1442 50.6394 84.4662 50.7354 84.7582C50.8354 85.0502 50.9794 85.3022 51.1674 85.5142C51.3554 85.7222 51.5854 85.8842 51.8574 86.0002C52.1294 86.1162 52.4374 86.1742 52.7814 86.1742ZM69.519 78.5842L66.831 87.2002H65.679L63.579 80.8102C63.531 80.6822 63.489 80.5282 63.453 80.3482C63.409 80.5322 63.367 80.6862 63.327 80.8102L61.203 87.2002H60.057L57.369 78.5842H58.437C58.549 78.5842 58.643 78.6122 58.719 78.6682C58.795 78.7202 58.845 78.7922 58.869 78.8842L60.567 84.6502C60.599 84.7622 60.627 84.8842 60.651 85.0162C60.679 85.1482 60.707 85.2862 60.735 85.4302C60.763 85.2862 60.791 85.1482 60.819 85.0162C60.851 84.8842 60.887 84.7622 60.927 84.6502L62.871 78.8842C62.895 78.8042 62.945 78.7342 63.021 78.6742C63.101 78.6142 63.195 78.5842 63.303 78.5842H63.669C63.781 78.5842 63.873 78.6122 63.945 78.6682C64.017 78.7242 64.069 78.7962 64.101 78.8842L66.039 84.6502C66.111 84.8702 66.175 85.1202 66.231 85.4002C66.279 85.1242 66.331 84.8742 66.387 84.6502L68.091 78.8842C68.111 78.8042 68.161 78.7342 68.241 78.6742C68.321 78.6142 68.415 78.5842 68.523 78.5842H69.519ZM74.7884 83.9902L73.5104 80.6482C73.4184 80.4202 73.3264 80.1322 73.2344 79.7842C73.1904 79.9562 73.1444 80.1162 73.0964 80.2642C73.0524 80.4122 73.0084 80.5442 72.9644 80.6602L71.6924 83.9902H74.7884ZM77.3144 87.2002H76.3304C76.2184 87.2002 76.1264 87.1722 76.0544 87.1162C75.9824 87.0602 75.9304 86.9882 75.8984 86.9002L75.1364 84.9022H71.3384L70.5764 86.9002C70.5484 86.9762 70.4964 87.0462 70.4204 87.1102C70.3444 87.1702 70.2524 87.2002 70.1444 87.2002H69.1604L72.5924 78.5842H73.8824L77.3144 87.2002ZM85.4461 78.5842V87.2002H84.1681V83.3182H79.6741V87.2002H78.3901V78.5842H79.6741V82.3882H84.1681V78.5842H85.4461ZM92.1556 83.9902L90.8776 80.6482C90.7856 80.4202 90.6936 80.1322 90.6016 79.7842C90.5576 79.9562 90.5116 80.1162 90.4636 80.2642C90.4196 80.4122 90.3756 80.5442 90.3316 80.6602L89.0596 83.9902H92.1556ZM94.6816 87.2002H93.6976C93.5856 87.2002 93.4936 87.1722 93.4216 87.1162C93.3496 87.0602 93.2976 86.9882 93.2656 86.9002L92.5036 84.9022H88.7056L87.9436 86.9002C87.9156 86.9762 87.8636 87.0462 87.7876 87.1102C87.7116 87.1702 87.6196 87.2002 87.5116 87.2002H86.5276L89.9596 78.5842H91.2496L94.6816 87.2002ZM100.788 79.6522H98.0516V87.2002H96.7796V79.6522H94.0316V78.5842H100.788V79.6522ZM103.311 87.2002H102.027V78.5842H103.311V87.2002Z" fill="white"/>
<path d="M35.56 45.2H26.04V69H35.56C42.122 69 47.12 63.832 47.12 57.1C47.12 50.368 42.122 45.2 35.56 45.2ZM35.56 63.764H31.48V50.436H35.56C39.3 50.436 41.884 53.02 41.884 57.1C41.884 61.18 39.3 63.764 35.56 63.764ZM61.5347 69.476C68.3687 69.476 73.9107 64.104 73.9107 57.1C73.9107 50.096 68.3687 44.724 61.5347 44.724C54.7007 44.724 49.1587 50.096 49.1587 57.1C49.1587 64.104 54.7007 69.476 61.5347 69.476ZM61.5347 64.172C57.6587 64.172 54.5987 61.35 54.5987 57.1C54.5987 52.85 57.6587 50.028 61.5347 50.028C65.4107 50.028 68.4707 52.85 68.4707 57.1C68.4707 61.35 65.4107 64.172 61.5347 64.172ZM86.4936 45.2H76.9736V69H86.4936C93.0556 69 98.0536 63.832 98.0536 57.1C98.0536 50.368 93.0556 45.2 86.4936 45.2ZM86.4936 63.764H82.4136V50.436H86.4936C90.2336 50.436 92.8176 53.02 92.8176 57.1C92.8176 61.18 90.2336 63.764 86.4936 63.764Z" fill="white"/>
</svg>
