<svg xmlns="http://www.w3.org/2000/svg" width="1440" height="900"><path d="M817,478L889,460L814,443Z" fill="#edf8a7" stroke="#edf8a7" stroke-width="1.51"/><path d="M889,460L914,381L814,443Z" fill="#ebf39e" stroke="#ebf39e" stroke-width="1.51"/><path d="M889,460L1000,431L914,381Z" fill="#e0ed96" stroke="#e0ed96" stroke-width="1.51"/><path d="M883,626L981,544L889,460Z" fill="#cfeb84" stroke="#cfeb84" stroke-width="1.51"/><path d="M889,460L981,544L1000,431Z" fill="#d6ee93" stroke="#d6ee93" stroke-width="1.51"/><path d="M914,381L840,290L814,443Z" fill="#edea90" stroke="#edea90" stroke-width="1.51"/><path d="M1015,284L840,290L914,381Z" fill="#e3d87a" stroke="#e3d87a" stroke-width="1.51"/><path d="M817,478L883,626L889,460Z" fill="#ddf191" stroke="#ddf191" stroke-width="1.51"/><path d="M814,443L677,515L817,478Z" fill="#f3faae" stroke="#f3faae" stroke-width="1.51"/><path d="M817,478L756,638L883,626Z" fill="#d4ed8c" stroke="#d4ed8c" stroke-width="1.51"/><path d="M664,424L677,515L814,443Z" fill="#fdfebb" stroke="#fdfebb" stroke-width="1.51"/><path d="M1000,431L1022,383L914,381Z" fill="#d9e689" stroke="#d9e689" stroke-width="1.51"/><path d="M1043,469L1022,383L1000,431Z" fill="#d0e78d" stroke="#d0e78d" stroke-width="1.51"/><path d="M709,327L664,424L814,443Z" fill="#fef5ae" stroke="#fef5ae" stroke-width="1.51"/><path d="M840,290L709,327L814,443Z" fill="#f6ea97" stroke="#f6ea97" stroke-width="1.51"/><path d="M981,544L1043,469L1000,431Z" fill="#cce98c" stroke="#cce98c" stroke-width="1.51"/><path d="M677,515L756,638L817,478Z" fill="#e7f59f" stroke="#e7f59f" stroke-width="1.51"/><path d="M840,290L785,250L709,327Z" fill="#f9d98a" stroke="#f9d98a" stroke-width="1.51"/><path d="M918,186L785,250L840,290Z" fill="#f0c773" stroke="#f0c773" stroke-width="1.51"/><path d="M883,626L989,632L981,544Z" fill="#b8e176" stroke="#b8e176" stroke-width="1.51"/><path d="M981,544L1108,635L1043,469Z" fill="#b6e078" stroke="#b6e078" stroke-width="1.51"/><path d="M966,719L989,632L883,626Z" fill="#a7da70" stroke="#a7da70" stroke-width="1.51"/><path d="M1022,383L1015,284L914,381Z" fill="#d8dc7b" stroke="#d8dc7b" stroke-width="1.51"/><path d="M1031,289L1015,284L1022,383Z" fill="#d2d170" stroke="#d2d170" stroke-width="1.51"/><path d="M1141,316L1031,289L1022,383Z" fill="#c9d072" stroke="#c9d072" stroke-width="1.51"/><path d="M756,638L748,698L883,626Z" fill="#c1e586" stroke="#c1e586" stroke-width="1.51"/><path d="M634,669L748,698L756,638Z" fill="#c6e591" stroke="#c6e591" stroke-width="1.51"/><path d="M785,250L751,203L709,327Z" fill="#fdd289" stroke="#fdd289" stroke-width="1.51"/><path d="M569,341L566,444L664,424Z" fill="#ffea9c" stroke="#ffea9c" stroke-width="1.51"/><path d="M918,186L751,203L785,250Z" fill="#f4bf74" stroke="#f4bf74" stroke-width="1.51"/><path d="M1015,284L918,186L840,290Z" fill="#e4c66c" stroke="#e4c66c" stroke-width="1.51"/><path d="M976,191L918,186L1015,284Z" fill="#ddb861" stroke="#ddb861" stroke-width="1.51"/><path d="M664,424L566,444L677,515Z" fill="#fdf5ac" stroke="#fdf5ac" stroke-width="1.51"/><path d="M677,515L620,627L756,638Z" fill="#dded95" stroke="#dded95" stroke-width="1.51"/><path d="M569,341L664,424L709,327Z" fill="#ffe899" stroke="#ffe899" stroke-width="1.51"/><path d="M748,698L912,736L883,626Z" fill="#afdc7b" stroke="#afdc7b" stroke-width="1.51"/><path d="M526,468L620,627L677,515Z" fill="#edec92" stroke="#edec92" stroke-width="1.51"/><path d="M989,632L1108,635L981,544Z" fill="#aadb6e" stroke="#aadb6e" stroke-width="1.51"/><path d="M912,736L966,719L883,626Z" fill="#a0d671" stroke="#a0d671" stroke-width="1.51"/><path d="M1107,234L976,191L1015,284Z" fill="#d1b85f" stroke="#d1b85f" stroke-width="1.51"/><path d="M620,627L634,669L756,638Z" fill="#cee48b" stroke="#cee48b" stroke-width="1.51"/><path d="M642,224L569,341L709,327Z" fill="#ffd688" stroke="#ffd688" stroke-width="1.51"/><path d="M966,719L1030,705L989,632Z" fill="#96d269" stroke="#96d269" stroke-width="1.51"/><path d="M1016,788L1030,705L966,719Z" fill="#82c865" stroke="#82c865" stroke-width="1.51"/><path d="M751,203L642,224L709,327Z" fill="#ffce89" stroke="#ffce89" stroke-width="1.51"/><path d="M1030,705L1108,635L989,632Z" fill="#95d268" stroke="#95d268" stroke-width="1.51"/><path d="M1043,469L1141,316L1022,383Z" fill="#c7dc81" stroke="#c7dc81" stroke-width="1.51"/><path d="M1031,289L1107,234L1015,284Z" fill="#cec164" stroke="#cec164" stroke-width="1.51"/><path d="M1210,445L1141,316L1043,469Z" fill="#bada85" stroke="#bada85" stroke-width="1.51"/><path d="M566,444L526,468L677,515Z" fill="#faefa0" stroke="#faefa0" stroke-width="1.51"/><path d="M620,627L553,633L634,669Z" fill="#cfde7e" stroke="#cfde7e" stroke-width="1.51"/><path d="M508,410L526,468L566,444Z" fill="#ffe69c" stroke="#ffe69c" stroke-width="1.51"/><path d="M912,736L902,786L966,719Z" fill="#8ecc6d" stroke="#8ecc6d" stroke-width="1.51"/><path d="M748,698L902,786L912,736Z" fill="#9dd377" stroke="#9dd377" stroke-width="1.51"/><path d="M813,843L902,786L748,698Z" fill="#96cd78" stroke="#96cd78" stroke-width="1.51"/><path d="M1108,635L1146,616L1043,469Z" fill="#a3d772" stroke="#a3d772" stroke-width="1.51"/><path d="M1209,722L1146,616L1108,635Z" fill="#7dc666" stroke="#7dc666" stroke-width="1.51"/><path d="M1141,316L1107,234L1031,289Z" fill="#c5c065" stroke="#c5c065" stroke-width="1.51"/><path d="M498,576L553,633L620,627Z" fill="#d9dc7b" stroke="#d9dc7b" stroke-width="1.51"/><path d="M508,410L508,479L526,468Z" fill="#ffe59b" stroke="#ffe59b" stroke-width="1.51"/><path d="M498,576L620,627L526,468Z" fill="#e8e184" stroke="#e8e184" stroke-width="1.51"/><path d="M569,341L508,410L566,444Z" fill="#ffe192" stroke="#ffe192" stroke-width="1.51"/><path d="M501,297L508,410L569,341Z" fill="#fed581" stroke="#fed581" stroke-width="1.51"/><path d="M1215,524L1210,445L1043,469Z" fill="#aedb87" stroke="#aedb87" stroke-width="1.51"/><path d="M1141,316L1151,232L1107,234Z" fill="#beb861" stroke="#beb861" stroke-width="1.51"/><path d="M595,750L656,767L634,669Z" fill="#b3d37f" stroke="#b3d37f" stroke-width="1.51"/><path d="M634,669L656,767L748,698Z" fill="#b8dc89" stroke="#b8dc89" stroke-width="1.51"/><path d="M1030,705L1165,764L1108,635Z" fill="#79c565" stroke="#79c565" stroke-width="1.51"/><path d="M902,786L1016,788L966,719Z" fill="#82c567" stroke="#82c567" stroke-width="1.51"/><path d="M1146,616L1215,524L1043,469Z" fill="#a6d878" stroke="#a6d878" stroke-width="1.51"/><path d="M553,633L595,750L634,669Z" fill="#c2d77b" stroke="#c2d77b" stroke-width="1.51"/><path d="M508,479L498,576L526,468Z" fill="#f4df8b" stroke="#f4df8b" stroke-width="1.51"/><path d="M375,502L498,576L508,479Z" fill="#f2d680" stroke="#f2d680" stroke-width="1.51"/><path d="M642,224L501,297L569,341Z" fill="#ffcb79" stroke="#ffcb79" stroke-width="1.51"/><path d="M751,203L725,105L642,224Z" fill="#ffb67c" stroke="#ffb67c" stroke-width="1.51"/><path d="M886,75L725,105L751,203Z" fill="#f0a76a" stroke="#f0a76a" stroke-width="1.51"/><path d="M886,75L751,203L918,186Z" fill="#ecac63" stroke="#ecac63" stroke-width="1.51"/><path d="M886,75L918,186L976,191Z" fill="#e0a65a" stroke="#e0a65a" stroke-width="1.51"/><path d="M1019,50L886,75L976,191Z" fill="#d4984e" stroke="#d4984e" stroke-width="1.51"/><path d="M1250,346L1151,232L1141,316Z" fill="#b4bc66" stroke="#b4bc66" stroke-width="1.51"/><path d="M1063,98L976,191L1107,234Z" fill="#cea454" stroke="#cea454" stroke-width="1.51"/><path d="M582,179L501,297L642,224Z" fill="#febb6f" stroke="#febb6f" stroke-width="1.51"/><path d="M508,410L375,502L508,479Z" fill="#fedb90" stroke="#fedb90" stroke-width="1.51"/><path d="M626,101L582,179L642,224Z" fill="#fcaa6b" stroke="#fcaa6b" stroke-width="1.51"/><path d="M656,767L813,843L748,698Z" fill="#a3d387" stroke="#a3d387" stroke-width="1.51"/><path d="M902,786L912,873L1016,788Z" fill="#76bc63" stroke="#76bc63" stroke-width="1.51"/><path d="M656,767L752,935L813,843Z" fill="#90bf7c" stroke="#90bf7c" stroke-width="1.51"/><path d="M520,767L595,750L553,633Z" fill="#b8cd74" stroke="#b8cd74" stroke-width="1.51"/><path d="M1210,445L1250,346L1141,316Z" fill="#adcb76" stroke="#adcb76" stroke-width="1.51"/><path d="M1304,382L1250,346L1210,445Z" fill="#a3c878" stroke="#a3c878" stroke-width="1.51"/><path d="M1151,232L1063,98L1107,234Z" fill="#c4a355" stroke="#c4a355" stroke-width="1.51"/><path d="M1222,135L1063,98L1151,232Z" fill="#ba964e" stroke="#ba964e" stroke-width="1.51"/><path d="M813,843L912,873L902,786Z" fill="#80bc68" stroke="#80bc68" stroke-width="1.51"/><path d="M725,105L626,101L642,224Z" fill="#faa86f" stroke="#faa86f" stroke-width="1.51"/><path d="M582,179L450,166L501,297Z" fill="#fca963" stroke="#fca963" stroke-width="1.51"/><path d="M705,-15L626,101L725,105Z" fill="#ec9768" stroke="#ec9768" stroke-width="1.51"/><path d="M626,101L560,145L582,179Z" fill="#f8a062" stroke="#f8a062" stroke-width="1.51"/><path d="M1146,616L1277,610L1215,524Z" fill="#89c96b" stroke="#89c96b" stroke-width="1.51"/><path d="M1114,823L1165,764L1030,705Z" fill="#63b95f" stroke="#63b95f" stroke-width="1.51"/><path d="M1114,823L1030,705L1016,788Z" fill="#6cbc60" stroke="#6cbc60" stroke-width="1.51"/><path d="M1063,98L1019,50L976,191Z" fill="#cc964a" stroke="#cc964a" stroke-width="1.51"/><path d="M886,75L754,-21L725,105Z" fill="#e19662" stroke="#e19662" stroke-width="1.51"/><path d="M1277,610L1293,451L1215,524Z" fill="#8fc972" stroke="#8fc972" stroke-width="1.51"/><path d="M1215,524L1293,451L1210,445Z" fill="#9fd183" stroke="#9fd183" stroke-width="1.51"/><path d="M1165,764L1209,722L1108,635Z" fill="#69be63" stroke="#69be63" stroke-width="1.51"/><path d="M1127,894L1114,823L1023,950Z" fill="#4d9a50" stroke="#4d9a50" stroke-width="1.51"/><path d="M1295,802L1304,727L1209,722Z" fill="#41a758" stroke="#41a758" stroke-width="1.51"/><path d="M439,736L520,767L553,633Z" fill="#bbc56d" stroke="#bbc56d" stroke-width="1.51"/><path d="M595,750L602,869L656,767Z" fill="#a0c475" stroke="#a0c475" stroke-width="1.51"/><path d="M752,935L937,928L912,873Z" fill="#78aa5f" stroke="#78aa5f" stroke-width="1.51"/><path d="M1209,722L1277,610L1146,616Z" fill="#75c062" stroke="#75c062" stroke-width="1.51"/><path d="M1293,451L1304,382L1210,445Z" fill="#9fcb81" stroke="#9fcb81" stroke-width="1.51"/><path d="M1250,346L1237,170L1151,232Z" fill="#b0aa5a" stroke="#b0aa5a" stroke-width="1.51"/><path d="M1353,439L1304,382L1293,451Z" fill="#98c47c" stroke="#98c47c" stroke-width="1.51"/><path d="M327,394L375,502L508,410Z" fill="#ffce88" stroke="#ffce88" stroke-width="1.51"/><path d="M498,576L439,736L553,633Z" fill="#cfcd6e" stroke="#cfcd6e" stroke-width="1.51"/><path d="M327,394L508,410L501,297Z" fill="#fecb7a" stroke="#fecb7a" stroke-width="1.51"/><path d="M922,-41L883,-19L886,75Z" fill="#c48951" stroke="#c48951" stroke-width="1.51"/><path d="M912,873L937,928L1016,788Z" fill="#6dad5b" stroke="#6dad5b" stroke-width="1.51"/><path d="M752,935L912,873L813,843Z" fill="#7fb068" stroke="#7fb068" stroke-width="1.51"/><path d="M375,502L388,582L498,576Z" fill="#ebcc72" stroke="#ebcc72" stroke-width="1.51"/><path d="M520,767L602,869L595,750Z" fill="#a0c06e" stroke="#a0c06e" stroke-width="1.51"/><path d="M1347,267L1237,170L1250,346Z" fill="#a4a658" stroke="#a4a658" stroke-width="1.51"/><path d="M1063,98L1068,-30L1019,50Z" fill="#b58545" stroke="#b58545" stroke-width="1.51"/><path d="M693,945L752,935L656,767Z" fill="#8eb577" stroke="#8eb577" stroke-width="1.51"/><path d="M883,-19L754,-21L886,75Z" fill="#ce8d59" stroke="#ce8d59" stroke-width="1.51"/><path d="M504,70L450,166L560,145Z" fill="#f38d53" stroke="#f38d53" stroke-width="1.51"/><path d="M1237,170L1222,135L1151,232Z" fill="#b3964f" stroke="#b3964f" stroke-width="1.51"/><path d="M1019,50L922,-41L886,75Z" fill="#c38a4d" stroke="#c38a4d" stroke-width="1.51"/><path d="M754,-21L705,-15L725,105Z" fill="#e0946c" stroke="#e0946c" stroke-width="1.51"/><path d="M560,145L450,166L582,179Z" fill="#f99c5d" stroke="#f99c5d" stroke-width="1.51"/><path d="M504,70L560,145L626,101Z" fill="#f29257" stroke="#f29257" stroke-width="1.51"/><path d="M520,767L485,818L602,869Z" fill="#9cb566" stroke="#9cb566" stroke-width="1.51"/><path d="M388,582L439,736L498,576Z" fill="#d5c767" stroke="#d5c767" stroke-width="1.51"/><path d="M1277,610L1352,463L1293,451Z" fill="#8cc475" stroke="#8cc475" stroke-width="1.51"/><path d="M1304,382L1347,267L1250,346Z" fill="#9db566" stroke="#9db566" stroke-width="1.51"/><path d="M1352,463L1353,439L1293,451Z" fill="#95c581" stroke="#95c581" stroke-width="1.51"/><path d="M1237,170L1304,131L1222,135Z" fill="#a68846" stroke="#a68846" stroke-width="1.51"/><path d="M883,-19L856,-105L754,-21Z" fill="#cc8b5b" stroke="#cc8b5b" stroke-width="1.51"/><path d="M1068,-30L922,-41L1019,50Z" fill="#b28246" stroke="#b28246" stroke-width="1.51"/><path d="M999,967L1023,950L937,928Z" fill="#62a052" stroke="#62a052" stroke-width="1.51"/><path d="M602,869L693,945L656,767Z" fill="#92b672" stroke="#92b672" stroke-width="1.51"/><path d="M693,966L693,945L614,955Z" fill="#8cac6f" stroke="#8cac6f" stroke-width="1.51"/><path d="M439,736L485,818L520,767Z" fill="#aab663" stroke="#aab663" stroke-width="1.51"/><path d="M1114,823L1127,894L1165,764Z" fill="#49a757" stroke="#49a757" stroke-width="1.51"/><path d="M1209,722L1304,727L1277,610Z" fill="#5cb35d" stroke="#5cb35d" stroke-width="1.51"/><path d="M1023,950L1114,823L1016,788Z" fill="#5ba856" stroke="#5ba856" stroke-width="1.51"/><path d="M530,29L504,70L626,101Z" fill="#e98853" stroke="#e98853" stroke-width="1.51"/><path d="M999,967L937,928L861,1048Z" fill="#6ca558" stroke="#6ca558" stroke-width="1.51"/><path d="M937,928L1023,950L1016,788Z" fill="#63a353" stroke="#63a353" stroke-width="1.51"/><path d="M346,251L327,394L501,297Z" fill="#fdb266" stroke="#fdb266" stroke-width="1.51"/><path d="M375,502L220,564L388,582Z" fill="#ebb969" stroke="#ebb969" stroke-width="1.51"/><path d="M1277,610L1347,638L1352,463Z" fill="#7abb65" stroke="#7abb65" stroke-width="1.51"/><path d="M1295,802L1209,722L1165,764Z" fill="#47ab5a" stroke="#47ab5a" stroke-width="1.51"/><path d="M1304,727L1347,638L1277,610Z" fill="#5fb15b" stroke="#5fb15b" stroke-width="1.51"/><path d="M1468,262L1347,267L1353,439Z" fill="#94a35c" stroke="#94a35c" stroke-width="1.51"/><path d="M861,1048L937,928L752,935Z" fill="#7aab62" stroke="#7aab62" stroke-width="1.51"/><path d="M1023,950L1045,961L1127,894Z" fill="#519a4e" stroke="#519a4e" stroke-width="1.51"/><path d="M1353,439L1347,267L1304,382Z" fill="#98b76a" stroke="#98b76a" stroke-width="1.51"/><path d="M693,945L693,966L752,935Z" fill="#8bb176" stroke="#8bb176" stroke-width="1.51"/><path d="M614,955L693,945L602,869Z" fill="#8ca96a" stroke="#8ca96a" stroke-width="1.51"/><path d="M1183,-40L1063,98L1222,135Z" fill="#a98142" stroke="#a98142" stroke-width="1.51"/><path d="M1183,-40L1068,-30L1063,98Z" fill="#a37b43" stroke="#a37b43" stroke-width="1.51"/><path d="M705,-15L530,29L626,101Z" fill="#e38c5d" stroke="#e38c5d" stroke-width="1.51"/><path d="M327,394L312,455L375,502Z" fill="#ffc385" stroke="#ffc385" stroke-width="1.51"/><path d="M388,582L376,746L439,736Z" fill="#c5b760" stroke="#c5b760" stroke-width="1.51"/><path d="M999,967L1045,961L1023,950Z" fill="#5b9e4f" stroke="#5b9e4f" stroke-width="1.51"/><path d="M530,29L508,39L504,70Z" fill="#e27e4e" stroke="#e27e4e" stroke-width="1.51"/><path d="M392,86L369,160L450,166Z" fill="#f27d47" stroke="#f27d47" stroke-width="1.51"/><path d="M450,166L346,251L501,297Z" fill="#fca35b" stroke="#fca35b" stroke-width="1.51"/><path d="M369,160L346,251L450,166Z" fill="#f9894f" stroke="#f9894f" stroke-width="1.51"/><path d="M327,394L247,370L312,455Z" fill="#ffb273" stroke="#ffb273" stroke-width="1.51"/><path d="M486,940L614,955L602,869Z" fill="#8da25e" stroke="#8da25e" stroke-width="1.51"/><path d="M1304,727L1359,669L1347,638Z" fill="#55aa57" stroke="#55aa57" stroke-width="1.51"/><path d="M1347,638L1439,607L1352,463Z" fill="#75b160" stroke="#75b160" stroke-width="1.51"/><path d="M485,818L486,940L602,869Z" fill="#93a35c" stroke="#93a35c" stroke-width="1.51"/><path d="M439,736L376,746L485,818Z" fill="#adaf5d" stroke="#adaf5d" stroke-width="1.51"/><path d="M284,752L376,746L388,582Z" fill="#c3ac59" stroke="#c3ac59" stroke-width="1.51"/><path d="M1347,267L1304,131L1237,170Z" fill="#a28e4a" stroke="#a28e4a" stroke-width="1.51"/><path d="M922,-41L856,-105L883,-19Z" fill="#c58953" stroke="#c58953" stroke-width="1.51"/><path d="M754,-21L685,-95L705,-15Z" fill="#da8f6c" stroke="#da8f6c" stroke-width="1.51"/><path d="M705,-15L685,-95L530,29Z" fill="#d88760" stroke="#d88760" stroke-width="1.51"/><path d="M922,-148L856,-105L922,-41Z" fill="#c28851" stroke="#c28851" stroke-width="1.51"/><path d="M1304,727L1422,819L1359,669Z" fill="#399b51" stroke="#399b51" stroke-width="1.51"/><path d="M1127,894L1295,802L1165,764Z" fill="#3aa255" stroke="#3aa255" stroke-width="1.51"/><path d="M1304,948L1295,802L1127,894Z" fill="#258c49" stroke="#258c49" stroke-width="1.51"/><path d="M392,86L450,166L504,70Z" fill="#ef7e48" stroke="#ef7e48" stroke-width="1.51"/><path d="M815,-138L685,-95L754,-21Z" fill="#d68f68" stroke="#d68f68" stroke-width="1.51"/><path d="M530,29L530,-105L508,39Z" fill="#d5774e" stroke="#d5774e" stroke-width="1.51"/><path d="M362,24L392,86L508,39Z" fill="#e06c42" stroke="#e06c42" stroke-width="1.51"/><path d="M508,39L392,86L504,70Z" fill="#e67847" stroke="#e67847" stroke-width="1.51"/><path d="M1018,1102L1143,1006L1045,961Z" fill="#50994e" stroke="#50994e" stroke-width="1.51"/><path d="M764,1070L861,1048L752,935Z" fill="#81ae6b" stroke="#81ae6b" stroke-width="1.51"/><path d="M730,1052L752,935L693,966Z" fill="#8ab177" stroke="#8ab177" stroke-width="1.51"/><path d="M922,-148L815,-138L856,-105Z" fill="#c88a55" stroke="#c88a55" stroke-width="1.51"/><path d="M856,-105L815,-138L754,-21Z" fill="#cf8c5e" stroke="#cf8c5e" stroke-width="1.51"/><path d="M1068,-30L1086,-99L922,-41Z" fill="#af8045" stroke="#af8045" stroke-width="1.51"/><path d="M1227,-44L1183,-40L1222,135Z" fill="#93723e" stroke="#93723e" stroke-width="1.51"/><path d="M1183,-40L1086,-99L1068,-30Z" fill="#9f7943" stroke="#9f7943" stroke-width="1.51"/><path d="M667,1122L730,1052L693,966Z" fill="#8baf74" stroke="#8baf74" stroke-width="1.51"/><path d="M365,863L486,940L485,818Z" fill="#959751" stroke="#959751" stroke-width="1.51"/><path d="M667,1122L693,966L614,955Z" fill="#8cac6d" stroke="#8cac6d" stroke-width="1.51"/><path d="M1304,131L1227,-44L1222,135Z" fill="#9c773d" stroke="#9c773d" stroke-width="1.51"/><path d="M1347,267L1412,227L1304,131Z" fill="#9c8a49" stroke="#9c8a49" stroke-width="1.51"/><path d="M1468,262L1412,227L1347,267Z" fill="#958e4b" stroke="#958e4b" stroke-width="1.51"/><path d="M1502,456L1353,439L1352,463Z" fill="#8eb87a" stroke="#8eb87a" stroke-width="1.51"/><path d="M1430,653L1439,607L1347,638Z" fill="#60a453" stroke="#60a453" stroke-width="1.51"/><path d="M1430,653L1347,638L1359,669Z" fill="#5ba654" stroke="#5ba654" stroke-width="1.51"/><path d="M223,655L284,752L388,582Z" fill="#cca655" stroke="#cca655" stroke-width="1.51"/><path d="M346,251L247,370L327,394Z" fill="#fca763" stroke="#fca763" stroke-width="1.51"/><path d="M219,274L247,370L346,251Z" fill="#f99456" stroke="#f99456" stroke-width="1.51"/><path d="M298,147L346,251L369,160Z" fill="#f77c49" stroke="#f77c49" stroke-width="1.51"/><path d="M1086,-99L922,-148L922,-41Z" fill="#b68349" stroke="#b68349" stroke-width="1.51"/><path d="M1422,819L1430,653L1359,669Z" fill="#419950" stroke="#419950" stroke-width="1.51"/><path d="M730,1052L764,1070L752,935Z" fill="#87b073" stroke="#87b073" stroke-width="1.51"/><path d="M667,1122L764,1070L730,1052Z" fill="#8bb278" stroke="#8bb278" stroke-width="1.51"/><path d="M1045,961L1143,1006L1127,894Z" fill="#47964d" stroke="#47964d" stroke-width="1.51"/><path d="M1295,802L1422,819L1304,727Z" fill="#27964f" stroke="#27964f" stroke-width="1.51"/><path d="M1018,1102L1045,961L999,967Z" fill="#5c9e4f" stroke="#5c9e4f" stroke-width="1.51"/><path d="M917,1104L999,967L861,1048Z" fill="#6da559" stroke="#6da559" stroke-width="1.51"/><path d="M1403,54L1227,-44L1304,131Z" fill="#8b6b38" stroke="#8b6b38" stroke-width="1.51"/><path d="M1183,-40L1216,-130L1086,-99Z" fill="#977542" stroke="#977542" stroke-width="1.51"/><path d="M376,746L365,863L485,818Z" fill="#a1a256" stroke="#a1a256" stroke-width="1.51"/><path d="M335,835L365,863L376,746Z" fill="#a19750" stroke="#a19750" stroke-width="1.51"/><path d="M392,86L298,147L369,160Z" fill="#ef6f41" stroke="#ef6f41" stroke-width="1.51"/><path d="M220,564L375,502L312,455Z" fill="#f4b771" stroke="#f4b771" stroke-width="1.51"/><path d="M284,752L335,835L376,746Z" fill="#ab9a51" stroke="#ab9a51" stroke-width="1.51"/><path d="M161,475L220,564L312,455Z" fill="#f2ab6b" stroke="#f2ab6b" stroke-width="1.51"/><path d="M448,-152L530,-105L685,-95Z" fill="#d67d52" stroke="#d67d52" stroke-width="1.51"/><path d="M685,-95L530,-105L530,29Z" fill="#d68156" stroke="#d68156" stroke-width="1.51"/><path d="M392,86L291,61L298,147Z" fill="#e95f3a" stroke="#e95f3a" stroke-width="1.51"/><path d="M1528,380L1468,262L1353,439Z" fill="#8da45f" stroke="#8da45f" stroke-width="1.51"/><path d="M1412,227L1403,54L1304,131Z" fill="#95743b" stroke="#95743b" stroke-width="1.51"/><path d="M764,1070L917,1104L861,1048Z" fill="#7aab62" stroke="#7aab62" stroke-width="1.51"/><path d="M1514,443L1502,456L1582,534Z" fill="#85af70" stroke="#85af70" stroke-width="1.51"/><path d="M1439,607L1502,456L1352,463Z" fill="#7fae69" stroke="#7fae69" stroke-width="1.51"/><path d="M530,-105L362,24L508,39Z" fill="#d36d47" stroke="#d36d47" stroke-width="1.51"/><path d="M247,370L161,475L312,455Z" fill="#fcad75" stroke="#fcad75" stroke-width="1.51"/><path d="M298,147L219,274L346,251Z" fill="#f77e4a" stroke="#f77e4a" stroke-width="1.51"/><path d="M137,229L219,274L161,116Z" fill="#ea623b" stroke="#ea623b" stroke-width="1.51"/><path d="M220,564L223,655L388,582Z" fill="#ddaa5a" stroke="#ddaa5a" stroke-width="1.51"/><path d="M266,881L365,863L335,835Z" fill="#998446" stroke="#998446" stroke-width="1.51"/><path d="M1502,456L1528,380L1353,439Z" fill="#8bae71" stroke="#8bae71" stroke-width="1.51"/><path d="M1582,534L1502,456L1439,607Z" fill="#7aaa61" stroke="#7aaa61" stroke-width="1.51"/><path d="M917,1104L1018,1102L999,967Z" fill="#64a153" stroke="#64a153" stroke-width="1.51"/><path d="M1143,1006L1304,948L1127,894Z" fill="#318d4a" stroke="#318d4a" stroke-width="1.51"/><path d="M1341,962L1304,948L1304,999Z" fill="#0b7c41" stroke="#0b7c41" stroke-width="1.51"/><path d="M1430,653L1528,661L1439,607Z" fill="#5a9d4f" stroke="#5a9d4f" stroke-width="1.51"/><path d="M1304,948L1422,819L1295,802Z" fill="#108445" stroke="#108445" stroke-width="1.51"/><path d="M486,940L498,1039L614,955Z" fill="#8e9d59" stroke="#8e9d59" stroke-width="1.51"/><path d="M764,1070L667,1122L917,1104Z" fill="#83ae6d" stroke="#83ae6d" stroke-width="1.51"/><path d="M463,1062L498,1039L486,940Z" fill="#909552" stroke="#909552" stroke-width="1.51"/><path d="M463,1062L486,940L396,1048Z" fill="#90904e" stroke="#90904e" stroke-width="1.51"/><path d="M1514,443L1528,380L1502,456Z" fill="#8bae71" stroke="#8bae71" stroke-width="1.51"/><path d="M1403,54L1412,227L1503,159Z" fill="#8d6b37" stroke="#8d6b37" stroke-width="1.51"/><path d="M1434,53L1403,54L1503,159Z" fill="#875d2e" stroke="#875d2e" stroke-width="1.51"/><path d="M498,1039L544,1070L614,955Z" fill="#8ea05c" stroke="#8ea05c" stroke-width="1.51"/><path d="M362,24L291,61L392,86Z" fill="#df5b3a" stroke="#df5b3a" stroke-width="1.51"/><path d="M239,-33L291,61L362,24Z" fill="#d14735" stroke="#d14735" stroke-width="1.51"/><path d="M219,274L178,306L247,370Z" fill="#f49054" stroke="#f49054" stroke-width="1.51"/><path d="M220,564L136,609L223,655Z" fill="#d49b4f" stroke="#d49b4f" stroke-width="1.51"/><path d="M137,229L178,306L219,274Z" fill="#ef7c46" stroke="#ef7c46" stroke-width="1.51"/><path d="M544,1070L667,1122L614,955Z" fill="#8da765" stroke="#8da765" stroke-width="1.51"/><path d="M917,1104L1066,1125L1018,1102Z" fill="#609f51" stroke="#609f51" stroke-width="1.51"/><path d="M165,373L161,475L247,370Z" fill="#f7a068" stroke="#f7a068" stroke-width="1.51"/><path d="M178,306L165,373L247,370Z" fill="#f4965a" stroke="#f4965a" stroke-width="1.51"/><path d="M1227,-44L1216,-130L1183,-40Z" fill="#8f6f3f" stroke="#8f6f3f" stroke-width="1.51"/><path d="M1086,-99L1216,-130L922,-148Z" fill="#a67c44" stroke="#a67c44" stroke-width="1.51"/><path d="M1300,-116L1216,-130L1227,-44Z" fill="#886b3c" stroke="#886b3c" stroke-width="1.51"/><path d="M1018,1102L1066,1125L1143,1006Z" fill="#4f994e" stroke="#4f994e" stroke-width="1.51"/><path d="M667,1122L1066,1125L917,1104Z" fill="#75a85d" stroke="#75a85d" stroke-width="1.51"/><path d="M1304,948L1395,951L1422,819Z" fill="#05733c" stroke="#05733c" stroke-width="1.51"/><path d="M1304,999L1304,948L1143,1006Z" fill="#218546" stroke="#218546" stroke-width="1.51"/><path d="M1257,1081L1304,999L1143,1006Z" fill="#258747" stroke="#258747" stroke-width="1.51"/><path d="M1422,819L1528,661L1430,653Z" fill="#3f934d" stroke="#3f934d" stroke-width="1.51"/><path d="M1696,488L1683,347L1528,380Z" fill="#8caa6b" stroke="#8caa6b" stroke-width="1.51"/><path d="M1515,835L1528,661L1422,819Z" fill="#258747" stroke="#258747" stroke-width="1.51"/><path d="M1403,54L1408,9L1227,-44Z" fill="#7c5f35" stroke="#7c5f35" stroke-width="1.51"/><path d="M1503,159L1412,227L1468,262Z" fill="#917d42" stroke="#917d42" stroke-width="1.51"/><path d="M1434,53L1408,9L1403,54Z" fill="#7d5930" stroke="#7d5930" stroke-width="1.51"/><path d="M544,1070L325,1104L667,1122Z" fill="#8f9a56" stroke="#8f9a56" stroke-width="1.51"/><path d="M498,1039L463,1062L544,1070Z" fill="#8f9855" stroke="#8f9855" stroke-width="1.51"/><path d="M396,1048L486,940L365,863Z" fill="#918a49" stroke="#918a49" stroke-width="1.51"/><path d="M266,881L335,835L284,752Z" fill="#a08947" stroke="#a08947" stroke-width="1.51"/><path d="M1434,53L1454,5L1408,9Z" fill="#76532e" stroke="#76532e" stroke-width="1.51"/><path d="M1611,194L1503,159L1468,262Z" fill="#917a40" stroke="#917a40" stroke-width="1.51"/><path d="M192,819L266,881L284,752Z" fill="#9e8344" stroke="#9e8344" stroke-width="1.51"/><path d="M166,742L284,752L223,655Z" fill="#b8934b" stroke="#b8934b" stroke-width="1.51"/><path d="M1408,9L1300,-116L1227,-44Z" fill="#7f6438" stroke="#7f6438" stroke-width="1.51"/><path d="M161,475L136,609L220,564Z" fill="#e29e57" stroke="#e29e57" stroke-width="1.51"/><path d="M98,489L136,609L161,475Z" fill="#e39a5a" stroke="#e39a5a" stroke-width="1.51"/><path d="M530,-105L448,-152L362,24Z" fill="#d36944" stroke="#d36944" stroke-width="1.51"/><path d="M815,-138L448,-152L685,-95Z" fill="#d88861" stroke="#d88861" stroke-width="1.51"/><path d="M922,-148L448,-152L815,-138Z" fill="#d98f6c" stroke="#d98f6c" stroke-width="1.51"/><path d="M1341,962L1395,951L1304,948Z" fill="#08773f" stroke="#08773f" stroke-width="1.51"/><path d="M1423,1108L1395,951L1341,962Z" fill="#04713b" stroke="#04713b" stroke-width="1.51"/><path d="M1423,1108L1341,962L1304,999Z" fill="#07763e" stroke="#07763e" stroke-width="1.51"/><path d="M1528,661L1582,534L1439,607Z" fill="#67a255" stroke="#67a255" stroke-width="1.51"/><path d="M1528,380L1593,297L1468,262Z" fill="#8f9855" stroke="#8f9855" stroke-width="1.51"/><path d="M106,687L166,742L223,655Z" fill="#ba8c46" stroke="#ba8c46" stroke-width="1.51"/><path d="M1203,1117L1257,1081L1143,1006Z" fill="#2f8b49" stroke="#2f8b49" stroke-width="1.51"/><path d="M463,1062L325,1104L544,1070Z" fill="#908f4d" stroke="#908f4d" stroke-width="1.51"/><path d="M256,1014L396,1048L365,863Z" fill="#927c41" stroke="#927c41" stroke-width="1.51"/><path d="M1066,1125L1203,1117L1143,1006Z" fill="#3f934d" stroke="#3f934d" stroke-width="1.51"/><path d="M98,375L98,489L161,475Z" fill="#f09d6e" stroke="#f09d6e" stroke-width="1.51"/><path d="M178,306L98,375L165,373Z" fill="#f08e55" stroke="#f08e55" stroke-width="1.51"/><path d="M161,116L219,274L298,147Z" fill="#ee613d" stroke="#ee613d" stroke-width="1.51"/><path d="M161,116L298,147L291,61Z" fill="#e54f33" stroke="#e54f33" stroke-width="1.51"/><path d="M266,881L256,1014L365,863Z" fill="#92743d" stroke="#92743d" stroke-width="1.51"/><path d="M166,742L192,819L284,752Z" fill="#a88745" stroke="#a88745" stroke-width="1.51"/><path d="M136,609L106,687L223,655Z" fill="#c69146" stroke="#c69146" stroke-width="1.51"/><path d="M98,375L161,475L165,373Z" fill="#f29863" stroke="#f29863" stroke-width="1.51"/><path d="M1408,9L1390,-98L1300,-116Z" fill="#785a34" stroke="#785a34" stroke-width="1.51"/><path d="M1554,13L1454,5L1434,53Z" fill="#76522e" stroke="#76522e" stroke-width="1.51"/><path d="M1395,951L1455,911L1422,819Z" fill="#016c39" stroke="#016c39" stroke-width="1.51"/><path d="M1528,661L1604,564L1582,534Z" fill="#6ba457" stroke="#6ba457" stroke-width="1.51"/><path d="M1503,964L1455,911L1395,951Z" fill="#006837" stroke="#006837" stroke-width="1.51"/><path d="M137,229L98,375L178,306Z" fill="#ed7f4a" stroke="#ed7f4a" stroke-width="1.51"/><path d="M1683,347L1593,297L1528,380Z" fill="#8e9f5b" stroke="#8e9f5b" stroke-width="1.51"/><path d="M1503,159L1554,13L1434,53Z" fill="#835b2e" stroke="#835b2e" stroke-width="1.51"/><path d="M1696,488L1528,380L1514,443Z" fill="#8baf74" stroke="#8baf74" stroke-width="1.51"/><path d="M1638,672L1604,564L1528,661Z" fill="#5d9e50" stroke="#5d9e50" stroke-width="1.51"/><path d="M1455,911L1515,835L1422,819Z" fill="#06743d" stroke="#06743d" stroke-width="1.51"/><path d="M195,22L161,116L291,61Z" fill="#d83d2e" stroke="#d83d2e" stroke-width="1.51"/><path d="M137,229L33,255L98,375Z" fill="#e37546" stroke="#e37546" stroke-width="1.51"/><path d="M1477,-63L1390,-98L1408,9Z" fill="#72512f" stroke="#72512f" stroke-width="1.51"/><path d="M5,616L106,687L136,609Z" fill="#be8a46" stroke="#be8a46" stroke-width="1.51"/><path d="M166,742L98,792L192,819Z" fill="#a07b3d" stroke="#a07b3d" stroke-width="1.51"/><path d="M325,-129L239,-33L362,24Z" fill="#cd4736" stroke="#cd4736" stroke-width="1.51"/><path d="M239,-33L195,22L291,61Z" fill="#cc3a30" stroke="#cc3a30" stroke-width="1.51"/><path d="M448,-152L325,-129L362,24Z" fill="#d05a3d" stroke="#d05a3d" stroke-width="1.51"/><path d="M1454,5L1477,-63L1408,9Z" fill="#704e2d" stroke="#704e2d" stroke-width="1.51"/><path d="M1593,297L1611,194L1468,262Z" fill="#918848" stroke="#918848" stroke-width="1.51"/><path d="M1701,216L1611,194L1593,297Z" fill="#918345" stroke="#918345" stroke-width="1.51"/><path d="M1547,904L1581,801L1515,835Z" fill="#07763e" stroke="#07763e" stroke-width="1.51"/><path d="M1515,835L1581,801L1528,661Z" fill="#288848" stroke="#288848" stroke-width="1.51"/><path d="M156,917L266,881L192,819Z" fill="#916d38" stroke="#916d38" stroke-width="1.51"/><path d="M156,917L256,1014L266,881Z" fill="#8d6936" stroke="#8d6936" stroke-width="1.51"/><path d="M396,1048L325,1104L463,1062Z" fill="#918647" stroke="#918647" stroke-width="1.51"/><path d="M1554,13L1477,-63L1454,5Z" fill="#704e2d" stroke="#704e2d" stroke-width="1.51"/><path d="M1696,488L1514,443L1582,534Z" fill="#83ae6d" stroke="#83ae6d" stroke-width="1.51"/><path d="M1581,801L1638,672L1528,661Z" fill="#3f934d" stroke="#3f934d" stroke-width="1.51"/><path d="M1611,194L1599,120L1503,159Z" fill="#8f6d39" stroke="#8f6d39" stroke-width="1.51"/><path d="M-32,745L98,792L106,687Z" fill="#9c7840" stroke="#9c7840" stroke-width="1.51"/><path d="M106,687L98,792L166,742Z" fill="#a88041" stroke="#a88041" stroke-width="1.51"/><path d="M1423,1108L1304,999L1257,1081Z" fill="#097a40" stroke="#097a40" stroke-width="1.51"/><path d="M1423,1108L1503,964L1395,951Z" fill="#006837" stroke="#006837" stroke-width="1.51"/><path d="M1455,911L1547,904L1515,835Z" fill="#026c39" stroke="#026c39" stroke-width="1.51"/><path d="M1503,964L1547,904L1455,911Z" fill="#006837" stroke="#006837" stroke-width="1.51"/><path d="M1581,801L1634,830L1638,672Z" fill="#278848" stroke="#278848" stroke-width="1.51"/><path d="M98,792L156,917L192,819Z" fill="#926d36" stroke="#926d36" stroke-width="1.51"/><path d="M1599,120L1554,13L1503,159Z" fill="#885f2f" stroke="#885f2f" stroke-width="1.51"/><path d="M311,1102L396,1048L256,1014Z" fill="#927940" stroke="#927940" stroke-width="1.51"/><path d="M311,1102L325,1104L396,1048Z" fill="#917d42" stroke="#917d42" stroke-width="1.51"/><path d="M1696,488L1582,534L1604,564Z" fill="#7bab63" stroke="#7bab63" stroke-width="1.51"/><path d="M1611,194L1721,106L1599,120Z" fill="#8d6936" stroke="#8d6936" stroke-width="1.51"/><path d="M149,1117L311,1102L256,1014Z" fill="#8e6b37" stroke="#8e6b37" stroke-width="1.51"/><path d="M45,207L137,229L50,145Z" fill="#db5036" stroke="#db5036" stroke-width="1.51"/><path d="M45,207L33,255L137,229Z" fill="#dd5e3c" stroke="#dd5e3c" stroke-width="1.51"/><path d="M-55,517L14,571L98,489Z" fill="#ce8d59" stroke="#ce8d59" stroke-width="1.51"/><path d="M98,489L14,571L136,609Z" fill="#d39253" stroke="#d39253" stroke-width="1.51"/><path d="M50,145L137,229L161,116Z" fill="#de4932" stroke="#de4932" stroke-width="1.51"/><path d="M239,-33L129,-89L195,22Z" fill="#c22a2b" stroke="#c22a2b" stroke-width="1.51"/><path d="M325,-129L225,-107L239,-33Z" fill="#ca3c32" stroke="#ca3c32" stroke-width="1.51"/><path d="M50,145L22,46L14,67Z" fill="#c21f27" stroke="#c21f27" stroke-width="1.51"/><path d="M-7,392L98,489L98,375Z" fill="#e49166" stroke="#e49166" stroke-width="1.51"/><path d="M1718,629L1696,488L1604,564Z" fill="#73a75c" stroke="#73a75c" stroke-width="1.51"/><path d="M50,145L161,116L22,46Z" fill="#cd2d29" stroke="#cd2d29" stroke-width="1.51"/><path d="M-68,191L-13,343L33,255Z" fill="#d26341" stroke="#d26341" stroke-width="1.51"/><path d="M-13,343L-7,392L98,375Z" fill="#db8558" stroke="#db8558" stroke-width="1.51"/><path d="M-13,343L98,375L33,255Z" fill="#db7a4e" stroke="#db7a4e" stroke-width="1.51"/><path d="M14,571L5,616L136,609Z" fill="#c38a4b" stroke="#c38a4b" stroke-width="1.51"/><path d="M66,954L129,1012L156,917Z" fill="#835a2e" stroke="#835a2e" stroke-width="1.51"/><path d="M-96,617L5,616L14,571Z" fill="#b9844a" stroke="#b9844a" stroke-width="1.51"/><path d="M1203,1117L1423,1108L1257,1081Z" fill="#0e8043" stroke="#0e8043" stroke-width="1.51"/><path d="M1717,948L1634,830L1547,904Z" fill="#006938" stroke="#006938" stroke-width="1.51"/><path d="M1469,1150L1423,1108L1203,1117Z" fill="#06743d" stroke="#06743d" stroke-width="1.51"/><path d="M1566,1026L1547,904L1503,964Z" fill="#006837" stroke="#006837" stroke-width="1.51"/><path d="M1547,904L1634,830L1581,801Z" fill="#07763e" stroke="#07763e" stroke-width="1.51"/><path d="M1638,672L1718,629L1604,564Z" fill="#61a051" stroke="#61a051" stroke-width="1.51"/><path d="M-7,392L-55,517L98,489Z" fill="#d99069" stroke="#d99069" stroke-width="1.51"/><path d="M-68,191L33,255L45,207Z" fill="#d0523a" stroke="#d0523a" stroke-width="1.51"/><path d="M1683,347L1701,216L1593,297Z" fill="#91914f" stroke="#91914f" stroke-width="1.51"/><path d="M1599,120L1662,0L1554,13Z" fill="#7b552e" stroke="#7b552e" stroke-width="1.51"/><path d="M1696,488L1724,370L1683,347Z" fill="#8caa6a" stroke="#8caa6a" stroke-width="1.51"/><path d="M1718,629L1724,370L1696,488Z" fill="#81ae6b" stroke="#81ae6b" stroke-width="1.51"/><path d="M1724,370L1701,216L1683,347Z" fill="#8f9754" stroke="#8f9754" stroke-width="1.51"/><path d="M1634,830L1718,629L1638,672Z" fill="#3f934d" stroke="#3f934d" stroke-width="1.51"/><path d="M1662,0L1533,-130L1554,13Z" fill="#704e2d" stroke="#704e2d" stroke-width="1.51"/><path d="M1554,13L1533,-130L1477,-63Z" fill="#704e2d" stroke="#704e2d" stroke-width="1.51"/><path d="M1477,-63L1533,-130L1390,-98Z" fill="#704e2d" stroke="#704e2d" stroke-width="1.51"/><path d="M1390,-98L1533,-130L1300,-116Z" fill="#735330" stroke="#735330" stroke-width="1.51"/><path d="M1300,-116L1533,-130L1216,-130Z" fill="#7a5d35" stroke="#7a5d35" stroke-width="1.51"/><path d="M1216,-130L1533,-130L922,-148Z" fill="#8c6e3e" stroke="#8c6e3e" stroke-width="1.51"/><path d="M38,-77L129,-89L9,-146Z" fill="#af0d27" stroke="#af0d27" stroke-width="1.51"/><path d="M225,-107L129,-89L239,-33Z" fill="#c32d2c" stroke="#c32d2c" stroke-width="1.51"/><path d="M66,954L156,917L98,792Z" fill="#835c2f" stroke="#835c2f" stroke-width="1.51"/><path d="M-112,453L-55,517L-7,392Z" fill="#d98f6c" stroke="#d98f6c" stroke-width="1.51"/><path d="M156,917L129,1012L256,1014Z" fill="#8a6232" stroke="#8a6232" stroke-width="1.51"/><path d="M-32,745L106,687L5,616Z" fill="#a77e44" stroke="#a77e44" stroke-width="1.51"/><path d="M1634,830L1717,948L1718,629Z" fill="#138144" stroke="#138144" stroke-width="1.51"/><path d="M1423,1108L1566,1026L1503,964Z" fill="#006837" stroke="#006837" stroke-width="1.51"/><path d="M22,46L161,116L195,22Z" fill="#cc2827" stroke="#cc2827" stroke-width="1.51"/><path d="M50,145L-68,191L45,207Z" fill="#ce4334" stroke="#ce4334" stroke-width="1.51"/><path d="M-113,409L-112,453L-7,392Z" fill="#d98a64" stroke="#d98a64" stroke-width="1.51"/><path d="M129,-89L22,46L195,22Z" fill="#b91827" stroke="#b91827" stroke-width="1.51"/><path d="M-96,617L-32,745L5,616Z" fill="#a97e45" stroke="#a97e45" stroke-width="1.51"/><path d="M27,934L66,954L98,792Z" fill="#7b562f" stroke="#7b562f" stroke-width="1.51"/><path d="M1423,1108L1469,1150L1566,1026Z" fill="#006837" stroke="#006837" stroke-width="1.51"/><path d="M1066,1125L1469,1150L1203,1117Z" fill="#228647" stroke="#228647" stroke-width="1.51"/><path d="M667,1122L1469,1150L1066,1125Z" fill="#51994e" stroke="#51994e" stroke-width="1.51"/><path d="M1721,106L1662,0L1599,120Z" fill="#835b2e" stroke="#835b2e" stroke-width="1.51"/><path d="M1724,370L1721,106L1701,216Z" fill="#918245" stroke="#918245" stroke-width="1.51"/><path d="M1701,216L1721,106L1611,194Z" fill="#91713b" stroke="#91713b" stroke-width="1.51"/><path d="M38,-77L7,35L22,46Z" fill="#a90526" stroke="#a90526" stroke-width="1.51"/><path d="M22,46L7,35L14,67Z" fill="#b51527" stroke="#b51527" stroke-width="1.51"/><path d="M14,67L-68,191L50,145Z" fill="#c5312d" stroke="#c5312d" stroke-width="1.51"/><path d="M42,1139L149,1117L129,1012Z" fill="#81592e" stroke="#81592e" stroke-width="1.51"/><path d="M-20,896L27,934L98,792Z" fill="#7a5931" stroke="#7a5931" stroke-width="1.51"/><path d="M-108,173L-68,191L14,67Z" fill="#c7352f" stroke="#c7352f" stroke-width="1.51"/><path d="M-62,845L-20,896L98,792Z" fill="#7b5d35" stroke="#7b5d35" stroke-width="1.51"/><path d="M-55,517L-96,617L14,571Z" fill="#c18750" stroke="#c18750" stroke-width="1.51"/><path d="M-112,453L-96,617L-55,517Z" fill="#ca8b58" stroke="#ca8b58" stroke-width="1.51"/><path d="M-113,409L-7,392L-13,343Z" fill="#d7845b" stroke="#d7845b" stroke-width="1.51"/><path d="M42,1139L129,1012L-28,1060Z" fill="#77532e" stroke="#77532e" stroke-width="1.51"/><path d="M129,1012L149,1117L256,1014Z" fill="#8a6231" stroke="#8a6231" stroke-width="1.51"/><path d="M311,1102L149,1117L325,1104Z" fill="#906f3a" stroke="#906f3a" stroke-width="1.51"/><path d="M325,1104L42,1139L667,1122Z" fill="#917d42" stroke="#917d42" stroke-width="1.51"/><path d="M667,1122L42,1139L1469,1150Z" fill="#8ab177" stroke="#8ab177" stroke-width="1.51"/><path d="M-149,273L-113,409L-13,343Z" fill="#d57b51" stroke="#d57b51" stroke-width="1.51"/><path d="M-149,23L-108,173L14,67Z" fill="#bd1c27" stroke="#bd1c27" stroke-width="1.51"/><path d="M129,-89L38,-77L22,46Z" fill="#b00f27" stroke="#b00f27" stroke-width="1.51"/><path d="M9,-146L129,-89L225,-107Z" fill="#ba1927" stroke="#ba1927" stroke-width="1.51"/><path d="M9,-146L225,-107L325,-129Z" fill="#c22a2b" stroke="#c22a2b" stroke-width="1.51"/><path d="M27,934L-28,1060L66,954Z" fill="#73502d" stroke="#73502d" stroke-width="1.51"/><path d="M-62,845L98,792L-32,745Z" fill="#85693b" stroke="#85693b" stroke-width="1.51"/><path d="M1566,1026L1717,948L1547,904Z" fill="#006837" stroke="#006837" stroke-width="1.51"/><path d="M1469,1150L1581,1114L1566,1026Z" fill="#006837" stroke="#006837" stroke-width="1.51"/><path d="M-20,896L-74,958L27,934Z" fill="#704e2d" stroke="#704e2d" stroke-width="1.51"/><path d="M-142,867L-62,845L-180,791Z" fill="#7c6036" stroke="#7c6036" stroke-width="1.51"/><path d="M1718,972L1717,948L1566,1026Z" fill="#006837" stroke="#006837" stroke-width="1.51"/><path d="M1718,629L1718,972L1724,370Z" fill="#559b4f" stroke="#559b4f" stroke-width="1.51"/><path d="M-68,191L-149,273L-13,343Z" fill="#d26642" stroke="#d26642" stroke-width="1.51"/><path d="M-186,133L-108,173L-149,23Z" fill="#c1272a" stroke="#c1272a" stroke-width="1.51"/><path d="M1697,1107L1718,972L1566,1026Z" fill="#006837" stroke="#006837" stroke-width="1.51"/><path d="M1717,948L1718,972L1718,629Z" fill="#07753e" stroke="#07753e" stroke-width="1.51"/><path d="M-108,173L-149,273L-68,191Z" fill="#cf5039" stroke="#cf5039" stroke-width="1.51"/><path d="M-113,409L-149,273L-112,453Z" fill="#d7835a" stroke="#d7835a" stroke-width="1.51"/><path d="M-112,453L-165,652L-96,617Z" fill="#c0874f" stroke="#c0874f" stroke-width="1.51"/><path d="M-96,617L-165,652L-32,745Z" fill="#a67c44" stroke="#a67c44" stroke-width="1.51"/><path d="M1721,106L1721,-96L1662,0Z" fill="#714f2d" stroke="#714f2d" stroke-width="1.51"/><path d="M1662,0L1721,-96L1533,-130Z" fill="#704e2d" stroke="#704e2d" stroke-width="1.51"/><path d="M1724,370L1721,-96L1721,106Z" fill="#8b6634" stroke="#8b6634" stroke-width="1.51"/><path d="M-149,273L-165,652L-112,453Z" fill="#d88f6b" stroke="#d88f6b" stroke-width="1.51"/><path d="M38,-77L-149,23L7,35Z" fill="#a50026" stroke="#a50026" stroke-width="1.51"/><path d="M-108,173L-186,133L-149,273Z" fill="#cd4736" stroke="#cd4736" stroke-width="1.51"/><path d="M448,-152L9,-146L325,-129Z" fill="#ca3c31" stroke="#ca3c31" stroke-width="1.51"/><path d="M-62,845L-74,958L-20,896Z" fill="#704e2d" stroke="#704e2d" stroke-width="1.51"/><path d="M-142,867L-74,958L-62,845Z" fill="#72512f" stroke="#72512f" stroke-width="1.51"/><path d="M-28,1060L129,1012L66,954Z" fill="#79542e" stroke="#79542e" stroke-width="1.51"/><path d="M149,1117L42,1139L325,1104Z" fill="#896131" stroke="#896131" stroke-width="1.51"/><path d="M-74,958L-28,1060L27,934Z" fill="#704e2d" stroke="#704e2d" stroke-width="1.51"/><path d="M1581,1114L1697,1107L1566,1026Z" fill="#006837" stroke="#006837" stroke-width="1.51"/><path d="M1469,1150L1697,1107L1581,1114Z" fill="#006837" stroke="#006837" stroke-width="1.51"/><path d="M-74,958L-110,985L-28,1060Z" fill="#704e2d" stroke="#704e2d" stroke-width="1.51"/><path d="M-180,791L-62,845L-32,745Z" fill="#85693b" stroke="#85693b" stroke-width="1.51"/><path d="M-165,652L-180,791L-32,745Z" fill="#967441" stroke="#967441" stroke-width="1.51"/><path d="M-186,133L-180,791L-165,652Z" fill="#cb8b59" stroke="#cb8b59" stroke-width="1.51"/><path d="M-149,273L-186,133L-165,652Z" fill="#d67e54" stroke="#d67e54" stroke-width="1.51"/><path d="M-149,23L14,67L7,35Z" fill="#b00f27" stroke="#b00f27" stroke-width="1.51"/><path d="M9,-146L-149,23L38,-77Z" fill="#a50026" stroke="#a50026" stroke-width="1.51"/><path d="M-142,867L-110,985L-74,958Z" fill="#704e2d" stroke="#704e2d" stroke-width="1.51"/><path d="M-28,1060L-97,1094L42,1139Z" fill="#704e2d" stroke="#704e2d" stroke-width="1.51"/><path d="M-180,791L-110,985L-142,867Z" fill="#735330" stroke="#735330" stroke-width="1.51"/><path d="M-110,985L-97,1094L-28,1060Z" fill="#704e2d" stroke="#704e2d" stroke-width="1.51"/><path d="M-180,791L-97,1094L-110,985Z" fill="#704e2d" stroke="#704e2d" stroke-width="1.51"/><path d="M9,-146L-187,-109L-149,23Z" fill="#a50026" stroke="#a50026" stroke-width="1.51"/><path d="M-149,23L-187,-109L-186,133Z" fill="#a90626" stroke="#a90626" stroke-width="1.51"/></svg>